# xmcd
#
# Track frame offsets: 
#        150
#        11375
#        24537
#        37127
#        50290
#        63437
#        77155
#        90137
#        103467
#        116985
#        128445
#        140007
#        152285
#        165670
#        178555
#        191305
#        204342
#        219030
#        232090
#        244375
#        256710
#        269147
#        283305
#        297315
#
# Disc length: 4151 seconds
#
# Revision: 1
# Processed by: cddbd v1.5.2PL0 Copyright (c) Steve Scherf et al.
# Submitted via: ExactAudioCopyFreeDBPlugin 1.0
#
DISCID=56103518
DTITLE=Doctor Clayton - Complete Recordings 1935-1942
DYEAR=1900
DGENRE=blues
TTITLE0=Peter's Blues
TTITLE1=Yo Yo Jive
TTITLE2=Roaming Gambler
TTITLE3=Slick Man Blues
TTITLE4=False Love Blues
TTITLE5=Something Going On Wrong
TTITLE6=Black Snake Blues
TTITLE7='41 Blues
TTITLE8=Moonshine Man Blues
TTITLE9=Back Door Man Blues
TTITLE10=Jitterbug Swing
TTITLE11=Love Is Gone
TTITLE12=Confessin' the Blues
TTITLE13=Streamline Love
TTITLE14=Doctor Clayton Blues
TTITLE15=Watch Out Mama
TTITLE16=Cheating and Lying Blues
TTITLE17=Gotta Find My Baby
TTITLE18=Honey Stealin' Blues
TTITLE19=My Own Blues
TTITLE20=On the Killin' Floor
TTITLE21=Moonshine Woman Blues
TTITLE22=Pearl Harbor Blues
TTITLE23=Ain't No Business We Can Do
EXTD=Document DOCD-5079
EXTT0=
EXTT1=
EXTT2=
EXTT3=
EXTT4=
EXTT5=
EXTT6=
EXTT7=
EXTT8=
EXTT9=
EXTT10=
EXTT11=
EXTT12=
EXTT13=
EXTT14=
EXTT15=
EXTT16=
EXTT17=
EXTT18=
EXTT19=
EXTT20=
EXTT21=
EXTT22=
EXTT23=
PLAYORDER=
